<svg xmlns="http://www.w3.org/2000/svg" version="1.1" xmlns:xlink="http://www.w3.org/1999/xlink" xmlns:svgjs="http://svgjs.dev/svgjs" width="1440" height="560" preserveAspectRatio="none" viewBox="0 0 1440 560"><g mask="url(&quot;#SvgjsMask1176&quot;)" fill="none"><rect width="1440" height="560" x="0" y="0" fill="rgba(0, 0, 0, 1)"></rect><path d="M186.62 78.56L300.94 144.56L300.94 276.56L186.62 342.56L72.3 276.56L72.3 144.56zM300.94 -119.44L415.26 -53.44L415.26 78.56L300.94 144.56L186.62 78.56L186.62 -53.44zM415.26 78.56L529.57 144.56L529.57 276.56L415.26 342.56L300.94 276.56L300.94 144.56zM529.57 -119.44L643.89 -53.44L643.89 78.56L529.57 144.56L415.26 78.56L415.26 -53.44zM872.53 78.56L986.85 144.56L986.85 276.56L872.53 342.56L758.21 276.56L758.21 144.56zM1215.49 -119.44L1329.8 -53.44L1329.8 78.56L1215.49 144.56L1101.17 78.56L1101.17 -53.44zM1215.49 276.56L1329.8 342.56L1329.8 474.56L1215.49 540.56L1101.17 474.56L1101.17 342.56zM1329.8 474.56L1444.12 540.56L1444.12 672.56L1329.8 738.56L1215.49 672.56L1215.49 540.56zM1444.12 -119.44L1558.44 -53.44L1558.44 78.56L1444.12 144.56L1329.8 78.56L1329.8 -53.44zM1558.44 78.56L1672.76 144.56L1672.76 276.56L1558.44 342.56L1444.12 276.56L1444.12 144.56zM1558.44 474.56L1672.76 540.56L1672.76 672.56L1558.44 738.56L1444.12 672.56L1444.12 540.56z" stroke="rgba(10, 129, 209, 1)" stroke-width="2"></path></g><defs><mask id="SvgjsMask1176"><rect width="1440" height="560" fill="#ffffff"></rect></mask></defs></svg>