<?xml version="1.0" encoding="UTF-8"?>
<svg id="Capa_2" data-name="Capa 2" xmlns="http://www.w3.org/2000/svg" xmlns:xlink="http://www.w3.org/1999/xlink" viewBox="0 0 725.65 782.25">
  <defs>
    <style>
      .cls-1 {
        fill: url(#Degradado_sin_nombre_35-2);
      }

      .cls-1, .cls-2, .cls-3 {
        stroke-width: 0px;
      }

      .cls-2 {
        fill: url(#Degradado_sin_nombre_35);
      }

      .cls-3 {
        fill: #fff;
      }
    </style>
    <linearGradient id="Degradado_sin_nombre_35" data-name="Degradado sin nombre 35" x1="361.2" y1="47.94" x2="361.2" y2="544.95" gradientUnits="userSpaceOnUse">
      <stop offset=".23" stop-color="#3bcafb"/>
      <stop offset=".81" stop-color="#3bf4fb"/>
    </linearGradient>
    <linearGradient id="Degradado_sin_nombre_35-2" data-name="Degradado sin nombre 35" x1="669.8" y1="772.67" x2="669.8" y2="679.44" xlink:href="#Degradado_sin_nombre_35"/>
  </defs>
  <g id="Capa_4" data-name="Capa 4">
    <g>
      <path class="cls-3" d="M63.86,755.96c-21.81,0-32.9-13.24-32.9-39.33s11.29-38.75,32.51-38.75c16.94,0,26.09,7.59,28.82,23.56h31.15c-3.31-32.52-23.75-49.65-59.38-49.65-40.5,0-64.06,23.75-64.06,65.03s22.98,65.42,64.06,65.42c36.41,0,56.85-17.72,59.58-51.6h-30.96c-2.34,17.13-11.49,25.31-28.82,25.31Z"/>
      <rect class="cls-3" x="141.93" y="638.17" width="28.82" height="142.13"/>
      <path class="cls-3" d="M208.9,630.18c-10.12,0-16.74,6.04-16.74,15.38s6.62,15.38,16.74,15.38,17.33-6.23,17.33-15.38-6.81-15.38-17.33-15.38Z"/>
      <rect class="cls-3" x="194.89" y="673.21" width="28.82" height="107.09"/>
      <path class="cls-3" d="M295.93,671.27c-34.66,0-54.13,19.66-54.13,55.3s19.66,55.69,55.3,55.69c27.84,0,44.78-12.46,49.65-36.41h-28.04c-2.73,8.37-9.74,12.85-21.22,12.85-15.77,0-24.34-8.18-26.09-24.73h76.13c.39-4.09.78-9.74.58-16.55-1.17-29.2-19.86-46.14-52.18-46.14ZM271.79,716.63c2.34-14.6,10.71-22,24.53-22,14.8,0,23.75,8.37,24.34,22h-48.87Z"/>
      <path class="cls-3" d="M427.93,671.27c-15.58,0-26.09,5.45-34.85,14.99l-4.48-13.05h-22.78v107.09h28.82v-70.48c6.43-8.76,14.6-13.63,23.17-13.63,13.83,0,20.83,7.79,20.83,23.17v60.94h28.82v-67.76c0-24.34-15.77-41.28-39.53-41.28Z"/>
      <path class="cls-3" d="M526.64,739.61v-45.56h29.4v-20.83h-29.4v-30.18l-28.82,6.23v23.95h-18.69v20.83h18.69v52.76c0,23.36,13.44,35.43,39.53,35.43,6.04,0,16.35-.78,19.47-1.36v-24.92c-3.5.39-8.37.78-13.63.78-11.49,0-16.55-5.06-16.55-17.13Z"/>
      <rect class="cls-3" x="572.2" y="673.21" width="28.82" height="107.09"/>
      <path class="cls-3" d="M586.22,630.18c-10.12,0-16.75,6.04-16.75,15.38s6.62,15.38,16.75,15.38,17.33-6.23,17.33-15.38-6.82-15.38-17.33-15.38Z"/>
    </g>
    <path class="cls-2" d="M538.09,255.65c-27.57-17.09-52.99-37.28-75.8-60.09-11.71-11.71-22.73-24.11-32.98-37.17-29.37-37.24-52.6-79.64-68.12-125.71-15.82,46.88-39.55,89.96-69.65,127.67-29.34,36.82-64.7,68.5-104.71,93.69-27.8,17.51-57.83,31.87-89.62,42.62,30.72,10.37,59.82,24.15,86.85,40.89,27.65,17.13,53.14,37.36,75.99,60.21,11.71,11.71,22.77,24.11,33.02,37.17,29.37,37.24,52.57,79.64,68.12,125.71,15.78-46.88,39.55-89.93,69.61-127.63,9.83-12.36,20.35-24.11,31.49-35.25,22.31-22.31,47.11-42.08,73.99-58.94,27.61-17.32,57.4-31.52,88.89-42.16-30.79-10.41-59.98-24.23-87.08-41.01Z"/>
    <path class="cls-3" d="M76.91,3.07v170.56l99.79,72.95c40.2-24.8,75.91-56.44,105.36-93.23L76.91,3.07ZM546.46,346.22c-40.51,24.88-76.49,56.71-106.13,93.73l205.12,150.28v-171.6l-98.99-72.42ZM173.94,345l-97.03,71.57v176.78l206.69-151.48c-30.41-38.47-67.62-71.38-109.66-96.88ZM438.8,151.44c30.37,38.4,67.54,71.3,109.51,96.76l97.14-70.42V0l-206.65,151.44Z"/>
    <path class="cls-1" d="M662.08,693.42c-3.22,5.19-7.02,9.98-11.31,14.27-2.2,2.2-4.54,4.28-7,6.21-7.01,5.53-14.99,9.9-23.67,12.82,8.83,2.98,16.94,7.45,24.04,13.11,6.93,5.52,12.9,12.18,17.64,19.71,3.3,5.23,6,10.89,8.02,16.87,1.95-5.78,4.55-11.26,7.7-16.35,3.22-5.2,7.03-10,11.33-14.31,2.2-2.2,4.54-4.29,7-6.22,7.01-5.53,14.99-9.9,23.67-12.82-8.83-2.97-16.93-7.45-24.03-13.11-2.33-1.85-4.54-3.83-6.64-5.93-4.2-4.2-7.92-8.87-11.1-13.93-3.26-5.2-5.93-10.81-7.94-16.73-1.96,5.8-4.56,11.29-7.72,16.39Z"/>
    <path class="cls-3" d="M614.53,780.24h32.11l13.73-18.79c-4.67-7.57-10.63-14.29-17.55-19.84l-28.29,38.62ZM679.13,691.85c4.68,7.63,10.68,14.4,17.65,19.98l28.29-38.62h-32.3l-13.63,18.64ZM678.9,761.98l13.47,18.27h33.28l-28.52-38.91c-7.24,5.73-13.44,12.73-18.24,20.64ZM642.46,712.11c7.23-5.72,13.42-12.72,18.22-20.62l-13.26-18.29h-33.47l28.51,38.9Z"/>
  </g>
</svg>