<?xml version="1.0" encoding="UTF-8"?>
<svg id="Capa_2" data-name="Capa 2" xmlns="http://www.w3.org/2000/svg" xmlns:xlink="http://www.w3.org/1999/xlink" viewBox="0 0 568.54 593.35">
  <defs>
    <style>
      .cls-1 {
        fill: url(#Degradado_sin_nombre_35);
      }

      .cls-1, .cls-2 {
        stroke-width: 0px;
      }

      .cls-2 {
        fill: url(#Degradado_sin_nombre_2);
      }
    </style>
    <linearGradient id="Degradado_sin_nombre_35" data-name="Degradado sin nombre 35" x1="284.29" y1="47.94" x2="284.29" y2="544.95" gradientUnits="userSpaceOnUse">
      <stop offset=".23" stop-color="#3bcafb"/>
      <stop offset=".81" stop-color="#3bf4fb"/>
    </linearGradient>
    <linearGradient id="Degradado_sin_nombre_2" data-name="Degradado sin nombre 2" x1="284.27" y1="0" x2="284.27" y2="579.56" gradientUnits="userSpaceOnUse">
      <stop offset=".23" stop-color="#3bcafb"/>
      <stop offset=".81" stop-color="#3bf4fb"/>
    </linearGradient>
  </defs>
  <g id="Capa_4" data-name="Capa 4">
    <path class="cls-1" d="M461.18,255.65c-27.57-17.09-52.99-37.28-75.8-60.09-11.71-11.71-22.73-24.11-32.98-37.17-29.37-37.24-52.6-79.64-68.12-125.71-15.82,46.88-39.55,89.96-69.65,127.67-29.34,36.82-64.7,68.5-104.71,93.69-27.8,17.51-57.83,31.87-89.62,42.62,30.72,10.37,59.82,24.15,86.85,40.89,27.65,17.13,53.14,37.36,75.99,60.21,11.71,11.71,22.77,24.11,33.02,37.17,29.37,37.24,52.57,79.64,68.12,125.71,15.78-46.88,39.55-89.93,69.61-127.63,9.83-12.36,20.35-24.11,31.49-35.25,22.31-22.31,47.11-42.08,73.99-58.94,27.61-17.32,57.4-31.52,88.89-42.16-30.79-10.41-59.98-24.23-87.08-41.01Z"/>
    <path class="cls-2" d="M0,3.07v170.56l99.79,72.95c40.2-24.8,75.91-56.44,105.36-93.23L0,3.07ZM469.56,346.22c-40.51,24.88-76.49,56.71-106.13,93.73l205.12,150.28v-171.6l-98.99-72.42ZM97.03,345L0,416.57v176.78l206.69-151.48c-30.41-38.47-67.62-71.38-109.66-96.88ZM361.89,151.44c30.37,38.4,67.54,71.3,109.51,96.76l97.14-70.42V0l-206.65,151.44Z"/>
  </g>
</svg>